<?xml version="1.0" encoding="UTF-8"?>
<svg width="413px" height="413px" viewBox="0 0 413 413" version="1.1" xmlns="http://www.w3.org/2000/svg" xmlns:xlink="http://www.w3.org/1999/xlink">
    <!-- Generator: Sketch 43.2 (39069) - http://www.bohemiancoding.com/sketch -->
    <title>Artboard</title>
    <desc>Created with Sketch.</desc>
    <defs></defs>
    <g id="Page-1" stroke="none" stroke-width="1" fill="none" fill-rule="evenodd">
        <g id="Artboard">
            <g id="Group-2" transform="translate(36.000000, 28.000000)">
                <g id="mc_freddie_color_web">
                    <path d="M335.565251,254.910017 C335.287344,255.81774 309.030113,356.60936 205.862738,356.579317 C116.681695,356.552136 74.4111266,279.138146 74.4111266,279.138146 C67.9118191,279.50009 61.6402809,278.469334 55.8557969,276.347022 C29.6909628,266.747615 17.1371427,236.853548 26.1648342,211.773489 L11.7845611,200.79855 C-43.9201058,158.420247 113.881133,-35.5042125 169.682495,8.37694837 C169.9647,8.59869322 183.002709,19.0793565 183.002709,19.0793565 C203.03854,6.92845375 222.880982,0.359798909 239.010352,0.359083603 C250.464719,0.357652991 260.044644,3.66951969 266.495963,10.6458989 C280.979377,26.3068081 275.774344,56.213036 255.997081,86.4912229 C260.250926,90.5241181 263.776338,96.0055078 266.292546,101.44684 C272.579842,106.291608 276.655339,113.657114 278.680195,123.82948 C280.934969,135.140613 281.401968,151.252165 282.81729,158.175612 C288.150532,160.579755 285.878568,159.466739 291.564925,162.303643 C297.494093,165.262864 304.713954,168.866575 312.693046,176.53394 C326.875633,180.082573 332.291245,195.141195 323.992702,205.418711 C323.769947,205.694104 322.767904,206.880081 321.730049,208.059621 C321.977874,208.71198 324.698214,213.113257 326.661472,222.073895 C332.538353,223.460158 337.219803,227.073884 339.676561,232.314216 C343.925392,242.570273 335.565251,254.910017 335.565251,254.910017 Z M294.667746,331.029303 L294.667746,335.248177 L296.285769,335.248177 L296.285769,331.029303 L297.94032,331.029303 L297.94032,329.698118 L293.034682,329.698118 L293.034682,331.029303 L294.667746,331.029303 Z M298.435253,329.698118 L298.435253,335.248177 L299.910741,335.248177 L299.910741,331.241033 L301.1162,335.248177 L302.374662,335.248177 L303.58012,331.230304 L303.58012,335.248177 L305.055608,335.248177 L305.055608,329.698118 L302.748547,329.698118 L301.752235,332.89196 L300.740881,329.698118 L298.435253,329.698118 L298.435253,329.698118 Z" id="Fill-1" fill="#5B453E"></path>
                    <path d="M95.4568786,216.983063 L95.4568786,216.983063 C97.7037739,211.279928 98.8361748,206.598966 98.8361748,206.598966 C101.40825,214.451595 102.724013,222.710518 102.207592,231.058854 C104.339886,228.225527 106.629041,222.889344 106.629041,222.889344 C110.595667,246.20975 93.5545025,267.556626 71.1041723,267.556626 C51.1714822,267.556626 35.0134616,250.568825 35.0134616,229.613221 C35.0134616,208.656901 51.1714822,191.669099 71.1041723,191.669099 C76.2705274,191.669099 81.184044,192.810728 85.6284129,194.867232 C85.6284129,194.866517 93.2995154,198.729169 95.4568786,216.983063 Z M291.847846,299.2175 C319.826241,277.264044 324.713972,250.823474 325.180255,249.912174 C332.064908,241.666126 330.193331,233.542396 321.098311,233.541681 C318.204637,233.541681 316.018623,234.304197 316.018623,234.304197 C316.018623,234.304197 316.052287,222.27132 310.479099,212.900096 C306.182279,217.72555 294.256615,227.2849 278.608569,234.704053 C263.933915,241.661834 244.353623,247.754811 220.088299,248.561676 L220.087583,248.561676 C213.293178,248.856382 209.090188,247.75195 206.723677,255.662518 C205.968027,258.457219 206.29464,262.608855 206.863347,263.809138 C208.777184,270.361341 213.778083,273.249031 220.360477,274.778356 C225.352065,275.939297 230.653076,276.048739 230.653076,276.048739 C279.864882,277.426418 319.382162,239.096032 319.854175,238.777721 C320.311146,238.403616 320.689329,237.960841 320.689329,237.960841 C320.689329,237.960841 320.255278,238.977291 320.203708,239.092455 C313.095582,255.055939 271.940941,284.004372 230.976824,283.175333 L230.842168,283.223258 C221.341748,283.186777 209.799281,280.744723 203.798488,273.313409 C194.303797,261.555924 199.230923,242.005897 214.363265,241.548101 C214.381887,241.547386 217.861459,241.467271 219.410005,241.427929 C256.876644,240.277717 290.494838,226.530967 314.56534,197.824307 C317.875159,193.717736 314.177845,188.077548 307.004541,187.905875 C306.94151,187.904444 306.880628,187.877262 306.837653,187.831483 C298.332829,178.737082 290.857264,175.523928 284.204678,172.148399 C270.260604,165.053994 271.572786,171.182021 268.329578,136.772226 C267.452164,127.495423 265.69304,114.843806 257.532018,109.993316 C255.393277,108.721502 253.055417,108.176439 250.628026,108.176439 C248.229284,108.176439 247.060354,108.664993 246.589058,108.769428 C242.11962,109.758696 239.577627,112.289448 236.393869,115.221488 C221.348194,129.076965 209.322254,125.315886 191.372877,125.157088 C174.515075,125.009735 159.631274,136.753628 156.784156,154.788638 L156.779142,154.798652 C155.395335,164.239261 156.291371,173.831514 157.772589,178.143379 C157.772589,178.143379 153.197145,175.103328 151.016862,172.412347 C153.655549,188.88799 168.706954,199.656206 168.706954,199.656206 C166.336147,200.199838 162.926051,199.974517 162.926051,199.974517 C162.940377,199.986677 171.516827,206.760625 178.960876,209.123996 C177.021971,210.329287 167.209979,219.998793 162.14963,233.309922 C157.414461,245.766976 159.343339,260.721878 159.343339,260.721878 L163.456081,254.599574 C163.456081,254.599574 160.770121,268.244035 165.968707,281.457168 C167.693452,277.526561 171.461675,270.510125 171.461675,270.510125 C171.461675,270.510125 170.864317,285.163168 177.928035,297.16028 C178.109248,294.39133 179.169307,287.34199 179.169307,287.34199 C179.169307,287.34199 183.2226,299.851261 192.586215,308.598022 C210.114434,324.132322 256.524962,326.937753 291.847846,299.2175 L291.847846,299.2175 Z" id="Fill-2" fill="#F2D9B4"></path>
                    <path d="M31.5682699,201.097547 C31.425735,201.059636 17.9873386,191.210588 16.0756512,187.967391 C4.7688329,168.912355 24.4400895,129.772957 38.4385981,107.525511 C73.0323337,52.542801 130.613591,9.15090944 156.766249,15.3476052 L183.622987,29.1923525 C173.195015,35.3182329 163.109413,42.8425365 157.067793,47.8468172 L151.352786,52.6329295 C151.352786,52.6329295 134.66402,63.8539345 126.364044,70.9275953 C93.0910849,99.2816092 60.3302486,143.175646 48.1811132,185.545365 C48.1811132,185.543934 38.1986523,190.493136 31.5682699,201.097547" id="Fill-3" fill="#207EAC"></path>
                    <path d="M156.766966,15.3468899 L156.766966,15.3468899 C130.613591,9.15019413 73.0337662,52.5413704 38.4393144,107.524795 C38.4292868,107.540532 38.4192592,107.556984 38.4092316,107.572721 L38.5489016,107.587742 L66.1140163,129.260083 C96.3801327,81.2809341 134.419776,56.5413614 135.492728,55.8146105 L131.122133,26.4484387 L139.309656,22.5335691 L155.741287,27.8475772 L154.484257,22.3654722 L156.766966,15.3468899" id="Fill-4" fill="#4EB1D3"></path>
                    <path d="M183.622987,29.1916372 L157.067793,47.8453866 L155.209825,49.2974577 L131.661474,30.0829084 L131.120701,26.449154 L139.308224,22.5342844 C139.728666,22.6701925 155.091643,27.6387079 155.739854,27.8482925 L156.01418,17.6601894 L156.766249,15.3476052 L163.958893,12.5951077 C163.96892,12.6022608 183.595769,29.1680321 183.622987,29.1916372" id="Fill-5" fill="#FACD55"></path>
                    <path d="M236.026429,10.8969713 C218.464547,10.8969713 198.748166,20.1215573 183.622987,29.1909219 C181.501436,30.4377002 179.39636,31.7424183 177.334259,33.0721721 L169.420345,26.4470081 L172.294681,36.4233806 C171.20812,37.1687295 170.147345,37.9119324 169.108774,38.6508435 L152.756648,33.6644455 L163.576412,42.7094896 C161.106045,44.5792995 158.89926,46.3296532 157.068509,47.8453866 L131.121417,26.449154 L132.495196,36.038546 L151.353502,52.6322142 C151.353502,52.6322142 134.664736,63.8525039 126.36476,70.92688 C93.0918011,99.2801786 60.3309648,143.17493 48.1818294,185.54465 L48.8723003,185.156954 C48.9661298,185.104736 49.0606756,185.061818 49.1545052,185.010316 C49.492578,184.828628 49.8292184,184.655524 50.1672912,184.485281 C50.3843168,184.376555 50.5999099,184.266398 50.8169355,184.162678 C51.1643197,183.996012 51.5124201,183.840791 51.8605206,183.687715 C52.0653698,183.596871 52.2716516,183.501736 52.4772171,183.416614 C52.8539677,183.258532 53.2300022,183.11547 53.6067529,182.973125 C53.7808031,182.907316 53.9548533,182.83507 54.1289035,182.773554 C54.6775557,182.576845 55.2240591,182.395873 55.7691299,182.233498 C64.0289949,179.772846 75.2663364,178.190589 88.4210953,183.76926 C95.027125,167.129097 102.919551,150.199235 115.357337,133.931746 C125.442223,120.741504 135.136032,108.966137 146.771612,102.489757 C168.802216,81.8217055 228.18056,59.9054455 247.203605,78.9025417 C251.701693,71.5542034 255.605289,64.5978527 258.821279,55.8775575 C266.758829,34.906932 266.903512,10.8969713 236.026429,10.8969713" id="Fill-6" fill="#131B23"></path>
                    <polyline id="Fill-7" fill="#131B23" points="160.64979 29.4348412 156.766966 15.3468899 154.483541 22.3654722 155.850158 27.8826272 160.64979 29.4348412"></polyline>
                    <path d="M316.01934,234.290606 C316.01934,234.290606 316.053004,222.257729 310.479815,212.886505 C306.182995,217.71196 294.257332,227.271309 278.609285,234.690462 C263.935347,241.647528 244.354339,247.74122 220.089016,248.548085 L220.088299,248.548085 C213.293894,248.842791 209.090904,247.738359 206.724394,255.648928 C206.5396,256.330614 206.419985,257.093846 206.351941,257.87496 L206.349076,257.955074 C206.348359,257.955074 206.346927,257.954359 206.346211,257.954359 C206.325439,258.206862 206.309681,258.46008 206.299654,258.713299 C206.276017,259.436473 206.28318,260.073095 206.31183,260.628888 C206.312546,260.642479 206.313263,260.655354 206.313979,260.668945 C206.316128,260.710433 206.318277,260.75049 206.320425,260.790547 C206.341913,261.138186 206.371996,261.471518 206.408525,261.784822 C206.409957,261.799844 206.412106,261.817011 206.413539,261.832033 C206.415687,261.848485 206.417836,261.864937 206.419985,261.881389 C206.580426,263.138181 206.829683,263.721871 206.859766,263.788394 C206.861199,263.791256 206.862631,263.794117 206.863347,263.796263 L206.894146,263.901413 C208.831619,270.378508 213.813896,273.24474 220.360477,274.76548 C225.352065,275.926422 230.653793,276.035148 230.653793,276.035148 C270.806392,277.160324 304.505523,251.849938 315.808044,242.319916 C316.001433,239.648963 316.115318,237.744104 316.01934,234.290606 Z M200.669881,20.0907991 C210.261982,15.6745 220.543122,12.1852374 230.403819,11.1795172 C220.61045,13.3797984 208.676908,18.4506025 194.538013,27.0907835 C194.193494,27.2896386 161.082408,49.6071852 140.853188,69.6464823 C129.829291,80.5670588 85.5603686,133.581962 85.5954651,133.536897 C93.6862936,118.246517 99.015955,110.740096 111.824046,94.6542948 C119.067544,85.556318 126.797379,76.7086983 134.70986,68.5391887 C137.369319,65.7924137 140.050265,63.1236071 142.739807,60.5470749 C143.765485,59.5642445 166.898408,35.9083603 200.669881,20.0907991 L200.669881,20.0907991 Z" id="Fill-8" fill="#FFFFFF"></path>
                    <path d="M291.847846,299.2175 C287.045349,302.986447 282.038003,306.189587 276.926083,308.874846 C265.104277,304.387731 257.849319,294.827667 257.849319,294.827667 C257.849319,294.827667 267.985059,292.434253 281.533042,285.553725 C298.010513,277.191798 313.409302,265.111711 325.180971,249.911458 C324.713972,250.822758 319.826241,277.264044 291.847846,299.2175 Z M259.673624,171.76428 C253.955751,167.702772 244.484697,170.93524 242.396811,177.656255 C245.705914,177.822921 249.217001,180.322916 248.999976,183.521764 C251.336403,181.263543 254.658399,179.988153 257.890146,180.048238 C256.331573,177.55182 257.118738,173.24854 259.673624,171.76428 Z M199.677867,253.78341 C201.479251,247.088146 206.566101,241.784152 214.363265,241.548101 C214.381887,241.547386 217.861459,241.467271 219.410005,241.427929 C256.876644,240.277717 290.494838,226.530967 314.56534,197.824307 C317.875159,193.717736 314.177845,188.077548 307.004541,187.905875 C306.97589,187.905159 306.902116,187.905875 306.902116,187.905875 C305.688778,189.186988 305.471753,191.526753 303.464803,195.023169 C296.143234,207.726288 286.016805,213.535288 272.51323,220.274901 C231.112197,240.859261 209.643137,231.281314 201.027293,243.88429 C198.523262,247.593152 198.475989,251.736204 199.677867,253.78341 C199.677867,253.784125 199.677867,253.78341 199.677867,253.78341 Z M274.588224,167.453131 C270.62876,164.615512 270.487658,159.665594 268.328862,136.772226 C267.638391,129.470383 266.399984,120.078415 261.925533,114.044809 C261.00013,113.237229 259.699409,112.309477 257.824967,112.309477 C254.99862,112.185014 251.803402,115.1099 249.99199,117.108465 C244.850704,124.519035 239.93862,129.291556 231.250434,133.427456 C222.457675,137.401696 214.101115,138.843037 205.425821,138.56979 C199.075495,138.369505 193.514483,137.324443 188.063058,137.255058 C177.962415,137.097691 169.207617,140.367354 162.827208,148.413116 C158.4516,153.931702 156.69534,159.765022 156.135228,166.707782 C156.156715,167.54469 156.193961,168.333672 156.24195,169.076875 C156.317873,170.179877 156.418149,171.232807 156.540629,172.22136 C156.98614,175.73995 157.621459,177.565411 157.621459,177.565411 C157.621459,177.592593 157.617161,177.619775 157.609283,177.64481 C157.662286,177.817199 157.715289,177.98315 157.77044,178.141233 C157.77044,178.141233 153.194997,175.101897 151.014713,172.410916 C153.215052,186.145507 164.03983,195.91444 167.580283,198.783533 C167.78943,198.943761 167.995712,199.102559 168.197696,199.262072 C168.215603,199.275663 168.230644,199.292115 168.243536,199.308567 C168.540067,199.537465 168.704089,199.655491 168.704089,199.655491 C166.333998,200.199123 162.923186,199.973802 162.923186,199.973802 C162.938228,199.985962 171.514678,206.75991 178.958727,209.123281 C188.834466,200.788535 200.031697,197.588972 209.223411,196.596127 C214.794451,193.143345 220.7845,189.752079 227.215764,186.4817 C225.268263,174.370139 236.023564,162.173457 249.557939,161.002501 C259.770318,160.259298 264.73827,164.830819 268.315969,169.719935 C270.257739,169.101196 272.447334,168.424516 274.894065,167.704918 C274.790924,167.636249 274.688499,167.551843 274.588224,167.453131 Z M279.473806,249.026625 C279.370665,249.028771 279.263943,249.051661 279.093474,249.089572 C275.01368,250.033776 232.942231,266.309848 206.346211,257.967234 C206.226596,259.420736 206.265274,262.474377 206.861199,263.80127 C206.861915,263.804131 206.863347,263.806992 206.864064,263.809138 C210.887274,264.614573 215.979138,265.129593 221.888967,265.129593 C256.886671,265.129593 282.108196,249.238355 279.473806,249.026625 Z M83.6773314,245.763399 C83.6873589,245.756246 83.6973865,245.749808 83.7074141,245.742655 C85.8382759,243.455107 86.7321635,240.259119 86.2257704,237.201902 C85.4393213,232.803485 80.448449,231.91436 77.1486573,228.498774 C77.0963706,228.445126 77.0440839,228.390047 76.9932297,228.334253 C76.9373618,228.274168 76.8836426,228.213367 76.8306396,228.153281 C76.8270583,228.148989 76.8241933,228.144697 76.8198958,228.140405 C75.3372457,226.435831 74.8208251,224.496637 74.9418724,222.766312 C75.2025896,218.267037 79.203596,217.001661 81.2857523,217.829985 C81.2857523,217.829985 83.7554033,218.413675 85.667807,221.07819 C85.667807,221.07819 85.6670907,221.073898 85.6663745,221.06746 C85.3755745,220.188349 85.43574,218.767751 83.9387648,216.651161 C81.4855878,213.180496 75.8508013,209.650461 67.8638299,211.340729 L67.8652624,211.340729 C66.3890587,211.652603 67.2156182,211.475207 65.7594696,211.885077 C65.5317001,211.949455 65.3247021,212.012401 65.1449219,212.087509 C64.6872342,212.301385 64.2639269,212.448738 63.8578097,212.664045 C63.6472304,212.781355 62.4475015,213.324988 61.002813,214.411538 C52.0245432,225.985189 67.2313758,246.974412 83.6773314,245.763399 L83.6773314,245.763399 Z" id="Fill-9" fill="#E2B986"></path>
                    <path d="M216.054345,174.526076 C216.812144,175.632655 217.014845,176.468132 216.709003,176.815771 C216.098753,177.528215 213.917753,176.566129 210.69675,175.312913 C202.454075,172.242104 196.38094,171.774294 185.630653,175.837947 C182.912461,176.87371 180.985016,177.673422 180.060329,177.536084 C178.55261,177.312193 180.01234,174.556119 183.307118,171.882305 C189.936784,166.600486 199.041831,164.961005 206.822521,167.852987 C210.228318,169.104772 214.053126,171.603336 216.054345,174.526076 Z M214.421281,182.946658 C212.161494,181.222771 208.000046,180.066836 203.679589,180.800025 C202.772809,180.938079 201.935506,181.218479 201.111095,181.439508 C200.808835,181.5139 200.520184,181.620481 200.238695,181.738506 C198.452352,182.490293 196.905956,183.300019 195.405399,184.736354 C193.68352,186.39801 193.194317,187.940925 193.692115,188.320752 C194.181317,188.710594 195.373168,188.133342 197.214662,187.389424 C203.383775,184.827913 207.750072,184.759959 211.909371,185.049658 C213.915605,185.184135 215.257869,185.305022 215.56944,184.759244 C215.789331,184.388715 215.390376,183.684854 214.421281,182.946658 Z M81.5658085,214.546015 L81.567241,214.547446 L81.5693898,214.548877 C82.5821758,215.35288 83.3585974,216.211248 83.9373323,217.030988 C85.8354109,219.713386 85.231607,221.278475 86.0101774,222.039561 C86.2909497,222.314954 86.6920531,222.401506 87.0924403,222.238416 C88.1682569,221.794926 88.6968539,220.08606 88.797846,218.893645 L88.7985622,218.886492 C89.0685908,216.01883 87.5508442,212.796377 85.5395971,210.51312 L85.5345833,210.506682 C84.3040554,209.078932 82.6838842,207.748463 80.7571554,206.676934 C78.8268453,205.60326 76.5871125,204.789242 74.1246242,204.407984 C69.8693469,203.747041 65.6835464,204.593248 64.5146165,204.941602 L64.5210628,204.940171 C63.9186915,205.114706 63.1737852,205.271358 62.5334522,205.52243 C55.5936472,208.224856 51.0267985,213.186934 48.9947801,219.757735 L48.9940638,219.759881 L48.9933475,219.763457 C48.2419949,222.264882 47.9425999,224.679755 47.9425999,226.910795 C47.9425999,228.834252 48.1646393,230.621802 48.5113072,232.214788 L48.5113072,232.216219 L48.5120235,232.21908 L48.5113072,232.216219 C49.0986372,234.89647 50.2990824,237.914346 52.1735245,239.895744 L52.1792545,239.901466 C54.5221281,242.430073 57.0906224,241.946526 55.9940343,239.593885 C55.7326009,238.942241 54.3172789,236.278442 54.1267548,231.456564 C54.0028425,228.301349 54.4361774,225.01738 55.595796,222.020963 C56.2375614,220.399364 57.1171239,218.822114 58.2617011,217.404378 C60.6203323,214.52241 63.5183043,213.232713 63.8570935,213.044588 C64.2632106,212.828566 64.686518,212.681213 65.1442056,212.467336 C65.3232696,212.392944 65.5302676,212.329282 65.7587533,212.26562 C67.2149019,211.855749 66.3890587,212.033145 67.8645462,211.720557 L67.8631136,211.720557 C73.4155307,210.545309 78.1943912,211.830714 81.5658085,214.546015 Z M80.3811209,225.253431 C79.6140107,224.646851 79.2580314,224.12897 79.0460196,223.332119 C78.7330157,221.880048 78.8963221,221.036702 80.1390264,220.164744 C81.0959445,219.510239 81.8659198,219.194789 81.8687848,218.783488 C81.9117602,218.005235 78.7108118,217.204092 76.4725116,219.404374 C74.6145433,221.381479 74.0279296,225.503072 76.9925135,228.715511 C80.2930214,232.272013 85.4257124,233.111067 86.2250542,237.58316 C86.3303438,238.216921 86.4084157,238.922213 86.353264,239.618921 C86.3647241,240.418633 86.0968444,241.56956 86.0839517,241.641806 C85.0912208,245.961539 80.9863573,250.083132 74.2177375,249.033063 C72.9707357,248.851375 72.1627988,248.698299 71.9221368,249.042362 C71.3999861,249.767682 74.3008232,253.08241 79.6111457,252.962238 C84.8068672,252.852081 89.9610458,248.967254 91.6134486,243.128212 C91.6320712,243.052389 92.1198416,241.397171 92.159952,239.913627 C92.2530653,238.814917 92.1735608,237.684733 91.9687116,236.502332 C90.6149876,229.004495 83.1551807,227.464441 80.3811209,225.253431 Z M261.456385,171.724223 C259.402879,171.404481 257.383037,173.424505 256.943255,176.236373 C256.503474,179.048241 257.812074,181.586862 259.86558,181.907319 C261.91837,182.22706 263.938928,180.207036 264.37871,177.395168 C264.817775,174.583301 263.509175,172.04468 261.456385,171.724223 Z M238.897184,179.926636 C237.768364,181.983141 239.14286,184.903735 241.967057,186.448796 C244.790539,187.994573 247.995068,187.58041 249.123888,185.52319 C250.251991,183.466686 248.878212,180.546091 246.053298,179.00103 C243.2291,177.455969 240.025287,177.870132 238.897184,179.926636 Z M156.243382,96.7358352 C195.09526,71.5871075 233.903446,68.6958407 247.199308,78.905403 C247.200024,78.9032571 247.20074,78.9025417 247.201457,78.9011111 C247.177104,78.8345877 246.96366,78.2451755 246.880574,78.0835164 C243.504859,70.919727 235.627475,65.9225994 228.610314,63.9175967 C229.841558,65.1944179 231.622171,67.5320378 232.342008,68.9211621 C227.046727,65.2888383 220.009511,62.0899899 212.665738,60.5699647 C212.665738,60.5699647 213.540286,61.1972881 213.689984,61.3367727 C215.154011,62.6987153 217.102228,64.8503557 217.899421,66.6979911 C210.880111,63.883262 202.007131,62.3060123 194.411236,63.7666672 C194.304514,63.787411 193.46148,63.9862661 193.46148,63.9862661 C193.46148,63.9862661 194.45063,64.231616 194.67052,64.2974242 C197.189593,65.042773 200.783766,66.5756737 202.368124,68.6765274 C189.759153,66.4619401 175.888138,68.9132937 168.407559,73.0906806 C169.369491,73.0506235 169.36018,73.0463317 170.173847,73.0677908 C172.925702,73.1407521 178.469524,73.5141418 180.797357,74.9933946 C172.844049,76.6085555 161.333814,80.1614803 155.138199,85.4833568 C156.231922,85.3560323 162.44043,84.5656192 164.98099,84.9733436 C130.876457,104.463286 115.355188,133.9296 115.355188,133.9296 C125.409991,120.844508 138.454447,108.250116 156.243382,96.7358352 L156.243382,96.7358352 Z" id="Fill-10" fill="#916D53"></path>
                    <path d="M247.906969,151.678488 C247.853966,149.004674 248.277273,144.586229 250.798495,143.764342 C250.80136,143.763627 250.799927,143.763627 250.803508,143.762912 C255.111789,142.270783 260.816052,153.289357 261.078202,163.072597 C257.673837,161.370169 253.673546,160.647709 249.559372,161.003932 C248.525098,157.85444 248.029449,154.88735 247.906969,151.678488" id="Fill-11" fill="#5B453E"></path>
                </g>
            </g>
        </g>
    </g>
</svg>