<?xml version="1.0" encoding="UTF-8"?>
<svg width="413px" height="413px" viewBox="0 0 413 413" version="1.1" xmlns="http://www.w3.org/2000/svg" xmlns:xlink="http://www.w3.org/1999/xlink">
    <!-- Generator: Sketch 43.2 (39069) - http://www.bohemiancoding.com/sketch -->
    <title>Artboard</title>
    <desc>Created with Sketch.</desc>
    <defs>
        <polygon id="path-1" points="340.022062 355.936162 3.55612128e-05 355.936162 3.55612128e-05 0.00994838789 340.022062 0.00994838789"></polygon>
    </defs>
    <g id="Page-1" stroke="none" stroke-width="1" fill="none" fill-rule="evenodd">
        <g id="Artboard">
            <g id="Group" transform="translate(36.890177, 28.000000)">
                <g id="Page-1">
                    <path d="M73.8930693,203.61126 L73.8930693,203.61126 L73.8944046,203.61126 L73.8930693,203.61126 Z" id="Fill-1" fill="#231F1F"></path>
                    <path d="M58.5271787,206.562759 C58.528959,206.561869 58.5307394,206.560533 58.5325197,206.559643 L58.5383059,206.556083 L58.5271787,206.562759 Z" id="Fill-3" fill="#231F1F"></path>
                    <path d="M86.075255,221.441863 C86.0739197,221.440973 86.0721394,221.440083 86.070359,221.439638 C86.0685787,221.438747 86.0667983,221.438302 86.065463,221.437857 L86.075255,221.441863 Z" id="Fill-5" fill="#231F1F"></path>
                    <path d="M55.9399234,240.270178 C55.9390332,240.271513 55.937698,240.273293 55.9363627,240.275074 C55.9350274,240.277744 55.9336922,240.280414 55.9319118,240.28353 L55.9399234,240.270178 Z" id="Fill-7" fill="#231F1F"></path>
                    <g id="Group-11" transform="translate(0.000000, 0.101378)">
                        <mask id="mask-2" fill="white">
                            <use xlink:href="#path-1"></use>
                        </mask>
                        <g id="Clip-10"></g>
                        <path d="M338.820911,231.773074 C336.369404,226.537526 331.698844,222.926584 325.835833,221.541942 C323.877078,212.589062 321.16349,208.191272 320.916335,207.539224 C321.951515,206.361237 322.950941,205.176009 323.17337,204.900618 C331.452579,194.63172 326.049797,179.584923 311.900337,176.039821 C303.93979,168.378559 296.737194,164.778201 290.821723,161.821202 C285.148729,158.986301 287.415342,160.097891 282.09476,157.696241 C280.682554,150.778714 280.215754,134.68093 277.966627,123.379093 C275.946501,113.215027 271.880519,105.855894 265.60807,101.014494 C263.0982,95.5778611 259.580772,90.1011231 255.337137,86.0710791 C275.067812,55.8181764 280.26142,25.9369178 265.811899,10.2885381 C259.375496,3.31798232 249.818184,0.00939136729 238.390999,0.00994838789 C222.299046,0.0107282167 202.503324,6.57432474 182.515357,18.7151457 C182.515357,18.7151457 169.507558,8.24282424 169.225874,8.02146425 C113.556288,-35.8238551 -43.8744415,157.940773 11.7000248,200.284031 L26.046073,211.249761 C17.0404335,236.309449 29.5645032,266.178899 55.6679822,275.770571 C61.4386576,277.890926 67.6950677,278.920857 74.1795871,278.559462 C74.1795871,278.559462 116.350738,355.909682 205.321833,355.936196 C308.245464,355.966832 334.441279,255.258065 334.718507,254.351569 C334.718507,254.351569 343.059533,242.022253 338.820911,231.773074" id="Fill-9" fill="#231F1F" mask="url(#mask-2)"></path>
                    </g>
                    <path d="M15.9815184,187.564878 C4.7008004,168.525245 24.3261088,129.418389 38.2913437,107.188811 C72.8045713,52.2513172 130.249356,8.89506194 156.34114,15.0871257 L163.516893,12.3367808 C163.541397,12.357502 183.110123,28.8993427 183.134627,28.9200639 C196.611009,20.826666 213.783028,12.57474 229.836889,10.9354284 C220.06695,13.1344343 208.160936,18.2009823 194.056363,26.8341331 C193.712639,27.0331009 160.679338,49.3319723 140.497345,69.3544119 C129.49909,80.265777 85.3349898,133.236765 85.3697408,133.191869 C93.4412238,117.913797 98.7589106,110.414183 111.536039,94.3411305 C118.762471,85.2505543 126.473746,76.4101918 134.368132,68.2471664 C138.033363,64.4573096 141.7378,60.8135037 145.451482,57.3581935 C148.005014,54.9822778 150.563002,52.6957083 153.115309,50.5121875 C154.290495,49.5068768 155.464345,48.5232898 156.636189,47.5630977 C156.637971,47.5616494 156.639754,47.5600898 156.641536,47.5586415 L130.756142,26.1797453 L132.126245,35.7608338 L150.940474,52.3409976 C150.940474,52.3409976 134.290499,63.5525968 126.009619,70.6199627 C92.815037,98.9503646 60.2424092,142.440862 48.1213177,184.775987 L48.6990536,184.7556 C42.6623992,188.082573 36.6704088,193.421615 31.4369264,200.684384 C31.2952491,200.646061 17.8880355,190.805067 15.9815184,187.564878" id="Fill-12" fill="#FFFFFF"></path>
                    <path d="M70.879487,267.088001 C50.9943255,267.088001 34.8741928,250.113913 34.8741928,229.175397 C34.8741928,208.236881 50.9943255,191.262793 70.879487,191.262793 C76.034334,191.262793 80.9362337,192.403459 85.3697742,194.458197 C85.3697742,194.458197 93.0229083,198.318238 95.1755785,216.556318 L95.1755785,216.556207 L95.1755785,216.556318 C97.4170197,210.857552 98.5467622,206.180807 98.5467622,206.180807 C101.112324,214.026665 102.4254,222.278925 101.910038,230.620531 L101.910149,230.62042 L101.910149,230.620531 C104.037425,227.789418 106.321302,222.457394 106.321302,222.457394 C110.278241,245.75868 93.2776377,267.088001 70.879487,267.088001" id="Fill-14" fill="#FFFFFF"></path>
                    <path d="M324.358391,249.458132 C323.89315,250.368638 319.016423,276.787568 291.104442,298.723596 C255.86445,326.421111 209.563162,323.617181 192.075376,308.096916 C182.73381,299.356929 178.690104,286.858501 178.690104,286.858501 C178.690104,286.858501 177.632314,293.902138 177.451319,296.668747 C170.404324,284.680439 171.00066,270.039821 171.00066,270.039821 C171.00066,270.039821 167.240978,277.051262 165.520022,280.97848 C160.333543,267.775532 163.013159,254.142787 163.013159,254.142787 L158.910644,260.259876 C158.910644,260.259876 156.986195,245.31713 161.710218,232.870505 C166.75825,219.57019 176.547904,209.908779 178.481821,208.704612 C171.054903,206.343513 162.498465,199.574933 162.484319,199.562789 C162.484319,199.562789 165.886467,199.788271 168.251542,199.244508 C168.251542,199.244508 153.236536,188.485432 150.603478,172.023023 C152.778759,174.712207 157.343284,177.74886 157.343284,177.74886 C155.865585,173.440863 154.971972,163.856878 156.352434,154.423623 L156.357335,154.413485 C159.198008,136.394091 174.046721,124.660007 190.865105,124.806726 C208.772019,124.964697 220.7697,128.723361 235.779916,114.878948 C238.956739,111.949242 241.492339,109.42126 245.951609,108.43266 C246.422418,108.328051 247.588471,107.83921 249.981391,107.839433 C252.403048,107.839433 254.735153,108.384422 256.869446,109.655209 C265.010319,114.502291 266.765803,127.143427 267.641262,136.41225 C270.877006,170.793344 269.567716,164.671019 283.479042,171.758661 C290.115597,175.131755 297.57348,178.34231 306.058745,187.428876 C306.082581,187.454387 306.122901,187.503516 306.122901,187.503516 C306.122901,187.503516 306.197081,187.502848 306.225037,187.503516 C313.381187,187.674522 317.06992,193.310456 313.768015,197.413358 C289.754499,226.096354 256.215748,239.831925 218.836785,240.98117 C217.291924,241.020941 213.820608,241.10093 213.801785,241.101487 C198.70536,241.558578 193.790094,261.093067 203.262088,272.840854 C209.248732,280.265828 220.764242,282.705801 230.242362,282.741673 L230.376243,282.69466 C271.244564,283.523173 312.302792,254.597984 319.393672,238.647365 C319.444796,238.532173 319.878181,237.516836 319.878181,237.516836 C318.234747,239.443793 278.429005,276.929943 230.053682,275.573152 C230.053682,275.573152 224.764732,275.464087 219.785199,274.303702 C213.218146,272.775794 208.229146,269.890094 206.31951,263.343765 C210.333142,264.148214 215.412807,264.663458 221.309455,264.663458 C256.225549,264.663458 281.387186,248.78592 278.758917,248.574252 C278.656112,248.576257 278.549297,248.599429 278.379552,248.637418 C274.308558,249.580677 232.336668,265.84345 205.802589,257.507191 C205.868749,256.699066 205.990044,255.907985 206.180283,255.203466 C208.541125,247.299678 212.734862,248.404027 219.512871,248.109028 L219.513539,248.108694 C243.721528,247.302685 263.256395,241.214116 277.895933,234.26261 C293.507609,226.849558 305.405604,217.297545 309.691675,212.476309 C315.251951,221.839714 315.218871,233.86267 315.218871,233.86267 C315.218871,233.86267 317.399163,233.100554 320.286395,233.100777 C329.359309,233.101668 331.226174,241.219129 324.358391,249.458132" id="Fill-16" fill="#FFFFFF"></path>
                    <path d="M155.99129,96.027722 C194.75194,70.9000772 233.468483,68.0113684 246.732794,78.2119752 C246.733573,78.2106384 246.734353,78.2094129 246.735133,78.2081875 C246.710852,78.1408994 246.497445,77.5524628 246.414354,77.3915953 L246.414354,77.3917067 C243.046289,70.233992 235.187767,65.2401909 228.187329,63.2368106 C229.415199,64.5126106 231.191734,66.8483094 231.91059,68.2367389 C226.626874,64.6075269 219.606944,61.4105629 212.280269,59.8922362 C212.280269,59.8922362 213.153055,60.5197756 213.302528,60.6590307 C214.762851,62.019275 216.706347,64.1692631 217.501611,66.0157864 C210.498945,63.2031666 201.646455,61.6278009 194.068392,63.0866379 C193.962691,63.1070248 193.121872,63.3058812 193.121872,63.3058812 C193.121872,63.3058812 194.108266,63.5513045 194.327354,63.6163645 C196.840566,64.3615466 200.426493,65.8932419 202.007108,67.9926525 C189.428127,65.7797211 175.590201,68.2290521 168.127084,72.402696 C169.08697,72.3620335 169.078059,72.3583572 169.888805,72.380081 C172.634025,72.4531621 178.164785,72.8262545 180.487312,74.3041415 C172.552605,75.9181644 161.070175,79.4683909 154.888391,84.7853753 C155.980152,84.658486 162.173186,83.8688536 164.708118,84.2760357 C130.683632,103.74981 115.198597,133.191914 115.198597,133.191914 L115.199042,133.191691 C125.229837,120.11708 138.244208,107.532871 155.99129,96.027722" id="Fill-18" fill="#FFFFFF"></path>
                    <polygon id="Fill-20" fill="#231F1F" points="155.426397 27.6124803 160.215133 29.1634484 156.341062 15.0870923 154.06331 22.0996474"></polygon>
                    <path d="M168.680305,38.379577 L152.340417,33.3891181 L163.13863,42.4302308 C164.711225,41.243777 166.573524,39.8726151 168.680305,38.379577" id="Fill-22" fill="#231F1F"></path>
                    <path d="M176.885501,32.8190744 L168.964606,26.178052 L171.841368,36.177463 C173.424099,35.0939465 175.110303,33.9678736 176.885501,32.8190744" id="Fill-24" fill="#231F1F"></path>
                    <path d="M210.143805,174.540689 C213.357161,175.791757 215.532887,176.753175 216.142144,176.041748 C216.447664,175.694836 216.244726,174.859973 215.489003,173.754287 C213.492712,170.833828 209.677339,168.337485 206.277753,167.086973 C198.515688,164.19793 189.431524,165.835237 182.818025,171.112673 C179.530378,173.784478 178.074065,176.537831 179.578494,176.761864 C180.501624,176.899448 182.423958,176.100012 185.136097,175.065402 C195.861467,171.004611 201.919841,171.471394 210.143805,174.540689" id="Fill-26" fill="#231F1F"></path>
                    <path d="M211.354321,184.269154 C213.355067,184.403619 214.695098,184.524047 215.005852,183.979169 C215.695192,182.810428 210.391094,178.792082 203.143389,180.022986 C202.239305,180.161016 201.403498,180.440974 200.58128,180.661666 C200.280105,180.736418 199.991404,180.843032 199.710722,180.961231 C197.928507,181.711538 196.385539,182.521557 194.88846,183.95622 C193.171403,185.61681 192.683664,187.158308 193.17998,187.537862 C193.668165,187.92722 194.856605,187.350815 196.693954,186.607415 C202.849119,184.048017 207.204135,183.980283 211.354321,184.269154" id="Fill-28" fill="#231F1F"></path>
                    <path d="M83.6832244,216.224156 C85.5760416,218.90465 84.9738018,220.468207 85.7506878,221.228763 C86.0309236,221.503597 86.4313401,221.590269 86.8309769,221.427285 C87.9039149,220.984008 88.4316404,219.276183 88.5324407,218.08505 L88.5325521,218.08505 C88.5325521,218.084939 88.5332204,218.07714 88.5332204,218.07714 L88.533109,218.07714 C88.8025408,215.212606 87.2889777,211.99247 85.2818831,209.711248 L85.2764254,209.705009 L85.2764254,209.705009 C82.6654203,206.671364 78.5519902,204.333771 73.893125,203.611204 C69.648042,202.950689 65.4722383,203.796246 64.3062968,204.144273 L64.3120886,204.142602 C63.711074,204.316838 62.9676025,204.473806 62.328941,204.724354 C50.9125603,209.177845 45.9680015,220.316475 48.3397591,231.398734 L48.3392022,231.396283 C48.9255144,234.074215 50.123311,237.089256 51.9926267,239.069241 L51.9925153,239.069241 C51.9925153,239.069241 51.9984186,239.07548 51.9985299,239.075591 L51.9985299,239.075591 C54.3364276,241.602683 56.8985361,241.118966 55.8046585,238.768116 C55.5434688,238.117182 54.131597,235.455403 53.9416915,230.637621 C53.7477763,225.680694 54.8982358,220.531819 58.066928,216.596357 C60.4200849,213.717452 63.3114372,212.427837 63.6497028,212.239676 L63.6497028,212.239787 C64.0549087,212.024443 64.4770446,211.877724 64.9340429,211.663494 C65.1123647,211.589187 65.3195342,211.525353 65.5464183,211.461741 C66.9995014,211.051997 66.1748328,211.229463 67.6475189,210.917309 L67.6461823,210.917643 C75.4975754,209.253934 81.1712375,212.664794 83.6832244,216.224156" id="Fill-30" fill="#231F1F"></path>
                    <path d="M80.1348438,224.440299 C79.3699871,223.834483 79.0141232,223.316677 78.8037236,222.519914 C78.4909643,221.068876 78.6540268,220.226104 79.8933688,219.355146 C80.8477968,218.700981 81.6164405,218.38593 81.6190023,217.974515 C81.6622183,217.197471 78.4687994,216.396364 76.2360459,218.594924 C74.3819895,220.570231 73.7966797,224.688396 76.754304,227.898505 C80.0468525,231.45252 85.1675054,232.290947 85.9654425,236.758586 C86.0703638,237.391696 86.1483309,238.096995 86.0935312,238.792491 C86.1052262,239.59215 85.8381334,240.741506 85.8247676,240.81403 C84.8345861,245.129603 80.7390885,249.248659 73.9864738,248.198564 C72.7423425,248.017644 71.9362746,247.864686 71.6963589,248.208479 C71.1756504,248.933386 74.0695644,252.245096 79.3673139,252.124779 C86.9326794,251.964914 93.1896464,244.273017 91.6960205,235.678523 C90.3449629,228.188267 82.9023399,226.648551 80.1348438,224.440299" id="Fill-32" fill="#231F1F"></path>
                    <path d="M256.282164,175.463304 C255.84399,178.272805 257.149381,180.809365 259.197687,181.128872 C261.245992,181.448491 263.261663,179.429959 263.699838,176.62057 C264.137901,173.81107 262.832622,171.27451 260.784316,170.955002 C258.73601,170.635384 256.720339,172.653804 256.282164,175.463304" id="Fill-34" fill="#231F1F"></path>
                    <path d="M241.340671,185.667744 C244.158066,187.212027 247.354715,186.79805 248.48067,184.742978 C249.606514,182.688018 248.235297,179.770232 245.417902,178.22606 C242.600507,176.681776 239.403858,177.095754 238.277902,179.150714 C237.152058,181.205786 238.523276,184.12346 241.340671,185.667744" id="Fill-36" fill="#231F1F"></path>
                    <path d="M205.805936,258.265475 C205.711132,258.988265 205.743179,259.624271 205.855341,260.17962 C205.725375,259.568346 205.700005,258.918303 205.805936,258.265475" id="Fill-38" fill="#231F1F"></path>
                    <path d="M205.771045,260.220004 C205.779947,260.37108 205.789739,260.517255 205.799086,260.665064 C205.789294,260.517255 205.779947,260.369038 205.771045,260.220004" id="Fill-40" fill="#231F1F"></path>
                    <path d="M205.865675,261.334591 C205.873242,261.3969 205.880363,261.460988 205.887929,261.522406 C205.880363,261.460098 205.873242,261.397345 205.865675,261.334591" id="Fill-42" fill="#231F1F"></path>
                    <path d="M205.877314,261.430755 C206.039647,262.685834 206.291789,263.269035 206.322403,263.336434 C206.140188,262.951867 205.982825,262.270742 205.877314,261.430755" id="Fill-44" fill="#231F1F"></path>
                    <path d="M248.914991,160.622816 C253.019399,160.267103 257.010978,160.989447 260.407223,162.68992 C260.145142,152.914988 254.454439,141.90503 250.156449,143.396731 L250.156338,143.396397 C250.153219,143.397623 250.154333,143.397288 250.151326,143.398068 L250.151437,143.398403 C247.636554,144.219562 247.213862,148.634173 247.266656,151.305756 C247.388842,154.512857 247.883264,157.476875 248.914991,160.622816" id="Fill-46" fill="#231F1F"></path>
                    <path d="M168.680305,38.379577 L152.340417,33.3891181 L163.13863,42.4302308 C164.711225,41.243777 166.573524,39.8726151 168.680305,38.379577" id="Fill-48" fill="#231F1F"></path>
                    <path d="M210.143805,174.540689 C213.357161,175.791757 215.532887,176.753175 216.142144,176.041748 C216.447664,175.694836 216.244726,174.859973 215.489003,173.754287 C213.492712,170.833828 209.677339,168.337485 206.277753,167.086973 C198.515688,164.19793 189.431524,165.835237 182.818025,171.112673 C179.530378,173.784478 178.074065,176.537831 179.578494,176.761864 C180.501624,176.899448 182.423958,176.100012 185.136097,175.065402 C195.861467,171.004611 201.919841,171.471394 210.143805,174.540689" id="Fill-50" fill="#231F1F"></path>
                    <path d="M211.354321,184.269154 C213.355067,184.403619 214.695098,184.524047 215.005852,183.979169 C215.695192,182.810428 210.391094,178.792082 203.143389,180.022986 C202.239305,180.161016 201.403498,180.440974 200.58128,180.661666 C200.280105,180.736418 199.991404,180.843032 199.710722,180.961231 C197.928507,181.711538 196.385539,182.521557 194.88846,183.95622 C193.171403,185.61681 192.683664,187.158308 193.17998,187.537862 C193.668165,187.92722 194.856605,187.350815 196.693954,186.607415 C202.849119,184.048017 207.204135,183.980283 211.354321,184.269154" id="Fill-52" fill="#231F1F"></path>
                    <path d="M83.6832244,216.224156 C85.5760416,218.90465 84.9738018,220.468207 85.7506878,221.228763 C86.0309236,221.503597 86.4313401,221.590269 86.8309769,221.427285 C87.9039149,220.984008 88.4316404,219.276183 88.5324407,218.08505 L88.5325521,218.08505 C88.5325521,218.084939 88.5332204,218.07714 88.5332204,218.07714 L88.533109,218.07714 C88.8025408,215.212606 87.2889777,211.99247 85.2818831,209.711248 L85.2764254,209.705009 L85.2764254,209.705009 C82.6654203,206.671364 78.5519902,204.333771 73.893125,203.611204 C69.648042,202.950689 65.4722383,203.796246 64.3062968,204.144273 L64.3120886,204.142602 C63.711074,204.316838 62.9676025,204.473806 62.328941,204.724354 C50.9125603,209.177845 45.9680015,220.316475 48.3397591,231.398734 L48.3392022,231.396283 C48.9255144,234.074215 50.123311,237.089256 51.9926267,239.069241 L51.9925153,239.069241 C51.9925153,239.069241 51.9984186,239.07548 51.9985299,239.075591 L51.9985299,239.075591 C54.3364276,241.602683 56.8985361,241.118966 55.8046585,238.768116 C55.5434688,238.117182 54.131597,235.455403 53.9416915,230.637621 C53.7477763,225.680694 54.8982358,220.531819 58.066928,216.596357 C60.4200849,213.717452 63.3114372,212.427837 63.6497028,212.239676 L63.6497028,212.239787 C64.0549087,212.024443 64.4770446,211.877724 64.9340429,211.663494 C65.1123647,211.589187 65.3195342,211.525353 65.5464183,211.461741 C66.9995014,211.051997 66.1748328,211.229463 67.6475189,210.917309 L67.6461823,210.917643 C75.4975754,209.253934 81.1712375,212.664794 83.6832244,216.224156" id="Fill-54" fill="#231F1F"></path>
                    <path d="M80.1348438,224.440299 C79.3699871,223.834483 79.0141232,223.316677 78.8037236,222.519914 C78.4909643,221.068876 78.6540268,220.226104 79.8933688,219.355146 C80.8477968,218.700981 81.6164405,218.38593 81.6190023,217.974515 C81.6622183,217.197471 78.4687994,216.396364 76.2360459,218.594924 C74.3819895,220.570231 73.7966797,224.688396 76.754304,227.898505 C80.0468525,231.45252 85.1675054,232.290947 85.9654425,236.758586 C86.0703638,237.391696 86.1483309,238.096995 86.0935312,238.792491 C86.1052262,239.59215 85.8381334,240.741506 85.8247676,240.81403 C84.8345861,245.129603 80.7390885,249.248659 73.9864738,248.198564 C72.7423425,248.017644 71.9362746,247.864686 71.6963589,248.208479 C71.1756504,248.933386 74.0695644,252.245096 79.3673139,252.124779 C86.9326794,251.964914 93.1896464,244.273017 91.6960205,235.678523 C90.3449629,228.188267 82.9023399,226.648551 80.1348438,224.440299" id="Fill-56" fill="#231F1F"></path>
                    <path d="M256.282164,175.463304 C255.84399,178.272805 257.149381,180.809365 259.197687,181.128872 C261.245992,181.448491 263.261663,179.429959 263.699838,176.62057 C264.137901,173.81107 262.832622,171.27451 260.784316,170.955002 C258.73601,170.635384 256.720339,172.653804 256.282164,175.463304" id="Fill-58" fill="#231F1F"></path>
                    <path d="M241.340671,185.667744 C244.158066,187.212027 247.354715,186.79805 248.48067,184.742978 C249.606514,182.688018 248.235297,179.770232 245.417902,178.22606 C242.600507,176.681776 239.403858,177.095754 238.277902,179.150714 C237.152058,181.205786 238.523276,184.12346 241.340671,185.667744" id="Fill-60" fill="#231F1F"></path>
                    <path d="M301.070034,329.17872 L302.078817,332.370002 L303.072562,329.17872 L305.374038,329.17872 L305.374038,334.724194 L303.90202,334.724194 L303.90202,330.70997 L302.698989,334.724194 L301.443608,334.724194 L300.240688,330.719996 L300.240688,334.724194 L298.768559,334.724194 L298.768559,329.17872 L301.070034,329.17872 Z M293.381147,330.508996 L293.381147,329.17872 L298.275361,329.17872 L298.275361,330.508996 L296.624019,330.508996 L296.624019,334.724194 L295.010101,334.724194 L295.010101,330.508996 L293.381147,330.508996 Z" id="Fill-62" fill="#231F1F"></path>
                </g>
            </g>
        </g>
    </g>
</svg>